<svg width="170" height="188" viewBox="0 0 170 188" fill="none" xmlns="http://www.w3.org/2000/svg">
<path d="M127.698 70C141.09 62.268 158.215 66.8565 165.947 80.2487C173.679 93.6409 169.09 110.765 155.698 118.497L42.2487 183.997C28.8565 191.729 11.732 187.141 4 173.749C-3.73199 160.357 0.856517 143.232 14.2487 135.5L127.698 70Z" fill="#1F9163"/>
<path d="M155.638 69.4147C169.03 77.1467 173.619 94.2713 165.887 107.663C158.155 121.056 141.03 125.644 127.638 117.912L14.1888 52.4121C0.796613 44.6802 -3.7919 27.5556 3.94009 14.1634C11.6721 0.771241 28.7966 -3.81726 42.1888 3.91472L155.638 69.4147Z" fill="#1F9163"/>
<path d="M0 27C0 12.0883 12.0883 0 27 0C41.9117 0 54 12.0883 54 27V160C54 174.912 41.9117 187 27 187C12.0883 187 0 174.912 0 160V27Z" fill="#1F9163"/>
</svg>
